<svg preserveAspectRatio="none" width="100%" height="100%" overflow="visible" style="display: block;" viewBox="0 0 496 224" fill="none" xmlns="http://www.w3.org/2000/svg">
<path id="Vector 11" d="M32.9767 207.886L33.6612 207.157L32.9767 207.886ZM388.477 6.3847L388.218 5.41877L388.218 5.41877L388.477 6.3847ZM493.925 47.3842C494.477 47.4128 494.947 46.9888 494.976 46.4373L495.441 37.4493C495.47 36.8978 495.046 36.4275 494.494 36.3989C493.943 36.3703 493.473 36.7943 493.444 37.3458L493.03 45.3351L485.041 44.9211C484.489 44.8925 484.019 45.3164 483.99 45.868C483.962 46.4195 484.386 46.8898 484.937 46.9184L493.925 47.3842ZM62.4768 29.3848L61.9028 28.566C38.3242 45.0962 14.398 74.5005 4.60544 107.564C-5.20633 140.692 -0.82306 177.518 32.2922 208.615L32.9767 207.886L33.6612 207.157C1.17649 176.653 -3.10685 140.646 6.5231 108.132C16.1722 75.5528 39.7962 46.5067 63.0509 30.2036L62.4768 29.3848ZM32.9767 207.886L32.2922 208.615C53.2228 228.269 79.7257 226.885 108.974 213.697C138.205 200.517 170.473 175.434 203.317 147.168C236.224 118.846 269.654 87.3794 301.434 61.1685C333.212 34.9581 363.094 14.2214 388.736 7.35062L388.477 6.3847L388.218 5.41877C362.11 12.4143 331.929 33.4235 300.161 59.6256C268.393 85.8273 234.792 117.44 202.012 145.652C169.168 173.919 137.092 198.824 108.152 211.874C79.2278 224.915 53.7306 226.002 33.6612 207.157L32.9767 207.886ZM388.477 6.3847L388.736 7.35062C429.907 -3.68115 453.857 4.00467 468.539 15.389C475.908 21.1028 481.001 27.7924 484.78 33.6572C486.673 36.5942 488.226 39.3087 489.586 41.6112C490.926 43.8794 492.113 45.8109 493.234 47.0551L493.977 46.3855L494.72 45.716C493.758 44.6491 492.673 42.9039 491.308 40.5941C489.964 38.3185 488.381 35.5535 486.461 32.5739C482.615 26.6053 477.379 19.7125 469.765 13.8084C454.48 1.95681 429.847 -5.73566 388.218 5.41877L388.477 6.3847Z" fill="var(--stroke-0, #FF2B39)"/>
</svg>
