<svg preserveAspectRatio="none" width="100%" height="100%" overflow="visible" style="display: block;" viewBox="0 0 180 459" fill="none" xmlns="http://www.w3.org/2000/svg">
<path id="Vector 1" d="M87.764 0.197932C87.321 -0.131865 86.6945 -0.0400923 86.3647 0.402912L80.9904 7.62208C80.6606 8.06508 80.7523 8.69156 81.1954 9.02136C81.6384 9.35115 82.2648 9.25938 82.5946 8.81638L87.3718 2.39934L93.7889 7.17654C94.2319 7.50634 94.8584 7.41457 95.1881 6.97156C95.5179 6.52856 95.4262 5.90208 94.9832 5.57228L87.764 0.197932ZM87.1669 1.00006L86.1774 1.145C92.6387 45.2526 79.5667 93.734 61.7213 142.304C52.8014 166.581 42.7135 190.819 33.3018 214.531C23.8967 238.225 15.1728 261.38 9.01701 283.419C-3.28284 327.453 -5.41322 367.32 18.0974 398.238C41.5763 429.115 90.3901 450.74 179.073 458.996L179.165 458L179.258 457.004C90.6918 448.76 42.6316 427.198 19.6894 397.028C-3.22115 366.899 -1.31971 327.859 10.9433 283.957C17.0689 262.026 25.7592 238.954 35.1607 215.268C44.5557 191.599 54.667 167.302 63.5986 142.993C81.456 94.3911 94.6959 45.4975 88.1563 0.855119L87.1669 1.00006Z" fill="var(--stroke-0, #FF2B39)"/>
</svg>
