<svg preserveAspectRatio="none" width="100%" height="100%" overflow="visible" style="display: block;" viewBox="0 0 630 314" fill="none" xmlns="http://www.w3.org/2000/svg">
<path id="Vector 9" d="M629.904 143.393C630.116 142.883 629.876 142.298 629.366 142.085L621.06 138.619C620.551 138.406 619.965 138.647 619.752 139.156C619.54 139.666 619.78 140.252 620.29 140.464L627.673 143.545L624.592 150.928C624.379 151.438 624.62 152.024 625.129 152.236C625.639 152.449 626.225 152.208 626.437 151.699L629.904 143.393ZM114.984 309.508L114.691 308.552C97.7747 313.738 82.2825 312.815 68.5559 307.27C54.8158 301.72 42.7844 291.513 32.8597 278.04C13.0002 251.082 1.67115 211.171 2.00727 169.972C2.34332 128.783 14.3385 86.4383 40.9652 54.5854C67.5661 22.7633 108.845 1.31972 167.971 2.01649L167.982 1.01656L167.994 0.0166252C108.319 -0.686613 66.4486 20.9818 39.4307 53.3027C12.4386 85.5927 0.346198 128.422 0.00733676 169.956C-0.331452 211.481 11.0772 251.843 31.2495 279.226C41.3407 292.925 53.6487 303.405 67.8067 309.125C81.9781 314.85 97.9428 315.779 115.277 310.464L114.984 309.508ZM167.982 1.01656L167.971 2.01649C286.518 3.4135 379.087 48.061 453.359 87.8188C490.462 107.68 523.08 126.369 552.026 137.755C580.978 149.144 606.498 153.332 629.361 143.933L628.981 143.008L628.601 142.083C606.463 151.184 581.557 147.223 552.758 135.894C523.955 124.564 491.499 105.967 454.302 86.0555C379.975 46.2677 287.047 1.41961 167.994 0.0166252L167.982 1.01656Z" fill="var(--stroke-0, #FF2B39)"/>
</svg>
