<svg preserveAspectRatio="none" width="100%" height="100%" overflow="visible" style="display: block;" viewBox="0 0 409 241" fill="none" xmlns="http://www.w3.org/2000/svg">
<path id="Vector 7" d="M204.777 109.832L204.294 108.956L204.777 109.832ZM399.502 239.961C399.849 240.391 400.479 240.457 400.908 240.11L407.907 234.451C408.336 234.104 408.403 233.474 408.055 233.045C407.708 232.615 407.078 232.548 406.649 232.896L400.428 237.926L395.398 231.705C395.051 231.276 394.421 231.209 393.992 231.557C393.562 231.904 393.496 232.533 393.843 232.963L399.502 239.961ZM14.2795 0.33236L13.3363 6.39282e-09C-0.574159 39.4745 -2.97195 70.2489 3.22697 93.1956C9.4402 116.195 24.2645 131.229 44.5152 139.203C64.7227 147.159 90.2897 148.074 118.074 142.998C145.87 137.921 175.957 126.837 205.259 110.708L204.777 109.832L204.294 108.956C175.151 124.998 145.267 135.998 117.714 141.031C90.1497 146.066 64.9914 145.115 45.2479 137.342C25.5478 129.585 11.1956 115.024 5.15776 92.674C-0.894348 70.2708 1.38227 39.9402 15.2227 0.664719L14.2795 0.33236ZM204.777 109.832L205.259 110.708C259.407 80.9031 310.355 89.6134 346.545 117.438C382.78 145.297 404.246 192.337 399.285 239.227L400.28 239.332L401.274 239.438C406.311 191.828 384.528 144.118 347.764 115.852C310.954 87.5513 259.15 78.7616 204.294 108.956L204.777 109.832Z" fill="var(--stroke-0, #FF2B39)"/>
</svg>
