<svg preserveAspectRatio="none" width="100%" height="100%" overflow="visible" style="display: block;" viewBox="0 0 199 209" fill="none" xmlns="http://www.w3.org/2000/svg">
<path id="Vector 10" d="M170 204.258L170.232 205.231L170 204.258ZM0.0165063 177.078C-0.0828997 177.621 0.276919 178.142 0.820184 178.242L9.6732 179.862C10.2165 179.961 10.7375 179.601 10.8369 179.058C10.9363 178.515 10.5764 177.994 10.0332 177.894L2.16383 176.455L3.60376 168.585C3.70316 168.042 3.34334 167.521 2.80008 167.421C2.25681 167.322 1.73583 167.682 1.63642 168.225L0.0165063 177.078ZM144 0.758183L143.348 1.51637C155.689 12.129 166.733 29.3005 175.539 49.3639C184.337 69.4112 190.866 92.2647 194.222 114.162C197.58 136.071 197.749 156.95 193.889 173.074C190.024 189.22 182.201 200.332 169.769 203.285L170 204.258L170.232 205.231C183.747 202.02 191.897 189.988 195.834 173.54C199.777 157.071 199.578 135.908 196.199 113.859C192.818 91.7965 186.242 68.774 177.37 48.5601C168.505 28.3624 157.312 10.8874 144.653 -8.80055e-09L144 0.758183ZM170 204.258L169.769 203.285C147.33 208.616 129.997 206.625 115.526 201.419C101.018 196.199 89.3492 187.738 78.1953 179.999C67.0928 172.296 56.4478 165.266 44.161 163.263C31.8036 161.249 17.9518 164.335 0.431888 176.435L1.00017 177.258L1.56846 178.081C18.7985 166.181 32.1343 163.33 43.8393 165.237C55.6151 167.157 65.9076 173.908 77.0552 181.642C88.1513 189.341 100.045 197.974 114.849 203.301C129.691 208.641 147.421 210.65 170.232 205.231L170 204.258Z" fill="var(--stroke-0, #FF2B39)"/>
</svg>
