<svg preserveAspectRatio="none" width="100%" height="100%" overflow="visible" style="display: block;" viewBox="0 0 350 151" fill="none" xmlns="http://www.w3.org/2000/svg">
<path id="Vector 8" d="M0.0322459 12.6201C-0.106357 13.1547 0.214671 13.7005 0.749281 13.8391L9.46125 16.0977C9.99586 16.2363 10.5416 15.9153 10.6802 15.3807C10.8188 14.8461 10.4978 14.3003 9.96318 14.1617L2.2192 12.154L4.2269 4.41006C4.3655 3.87545 4.04447 3.32971 3.50986 3.1911C2.97525 3.0525 2.42951 3.37353 2.29091 3.90814L0.0322459 12.6201ZM344.5 1.37107L343.514 1.53682C348.505 31.23 350.728 73.9269 341.292 105.648C336.575 121.504 328.989 134.476 317.525 141.786C306.1 149.071 290.621 150.857 269.816 143.922L269.5 144.871L269.184 145.82C290.379 152.885 306.525 151.172 318.6 143.472C330.637 135.797 338.425 122.301 343.209 106.219C352.773 74.0652 350.496 31.0121 345.486 1.20533L344.5 1.37107ZM269.5 144.871L269.816 143.922C243.732 135.228 219.779 119.251 197.025 100.967C185.651 91.8269 174.591 82.1223 163.72 72.4747C152.854 62.8323 142.172 53.2414 131.58 44.355C110.41 26.5932 89.4907 11.5477 67.9471 4.42166C46.3397 -2.72547 24.1321 -1.8961 0.493223 12.0091L1.00024 12.8711L1.50726 13.733C24.6184 0.138243 46.2233 -0.657386 67.319 6.32048C88.4785 13.3195 109.153 28.1489 130.295 45.8872C140.859 54.7507 151.513 64.3161 162.392 73.9706C173.265 83.6199 184.357 93.3528 195.772 102.526C218.597 120.867 242.768 137.014 269.184 145.82L269.5 144.871Z" fill="var(--stroke-0, #FF2B39)"/>
</svg>
