<svg width="23" height="23" viewBox="0 0 23 23" fill="none" xmlns="http://www.w3.org/2000/svg">
<path d="M8.33357 3.66667H6.23357C4.92677 3.66667 4.27289 3.66667 3.77377 3.92099C3.33472 4.14468 2.97802 4.50138 2.75432 4.94043C2.5 5.43956 2.5 6.09344 2.5 7.40023V16.2669C2.5 17.5737 2.5 18.2268 2.75432 18.7259C2.97802 19.1649 3.33472 19.5222 3.77377 19.7459C4.2724 20 4.92549 20 6.22973 20H15.1036C16.4078 20 17.06 20 17.5586 19.7459C17.9976 19.5222 18.3556 19.1645 18.5792 18.7255C18.8333 18.2269 18.8333 17.5745 18.8333 16.2703V14.1667M20 8.33333V2.5M20 2.5H14.1667M20 2.5L11.8333 10.6667" stroke="#0A0A0A" stroke-width="3.125" stroke-linecap="round" stroke-linejoin="round"/>
</svg>
