<?xml version="1.0" encoding="utf-8"?>
<!-- Generator: Adobe Illustrator 20.0.0, SVG Export Plug-In . SVG Version: 6.00 Build 0)  -->
<svg version="1.1" id="Layer_1" xmlns="http://www.w3.org/2000/svg" xmlns:xlink="http://www.w3.org/1999/xlink" x="0px" y="0px"
	 viewBox="0 0 462 462" style="enable-background:new 0 0 462 462;" xml:space="preserve">
<style type="text/css">
	.st0{fill:url(#SVGID_1_);}
	.st1{fill:#FFFFFF;}
</style>
<title>Artboard 1</title>
<g>
	
		<image style="overflow:visible;opacity:0.6;" width="486" height="486" xlink:href="ECF9FA7D7C979E13.png"  transform="matrix(1 0 0 1 -12 -15)">
	</image>
	<g>
		
			<linearGradient id="SVGID_1_" gradientUnits="userSpaceOnUse" x1="231" y1="799.8" x2="231" y2="409.8" gradientTransform="matrix(1 0 0 1 0 -376.8)">
			<stop  offset="0" style="stop-color:#0072C9"/>
			<stop  offset="1" style="stop-color:#1AE2FF"/>
		</linearGradient>
		<circle class="st0" cx="231" cy="228" r="195"/>
	</g>
</g>
<circle class="st1" cx="231" cy="228" r="174"/>
<path d="M228.5,263.1l1,2.5c1.1,2.7,2.9,2.6,4-0.1l1-2.5l1-2.5c1.3-2.5,4.5-8.6,7.2-13.4l58.9-106.5c2.7-4.8,5.9-10.3,7.2-12.2
	l1.4-0.5l1.4-0.5c2.4-0.1,8.8-0.2,14.3-0.2h0.1c5.5,0,10,4.5,10,10V319c0,5.5-4.5,10-10,10h-3.9c-5.5,0-10-4.5-10-10V190.6
	c0-5.5,0-11.8,0-14.1l0.1-2.2l0.1-2.2c0.2-2.6-1.8-0.7-4.5,4.1l-59.5,108.6c-2.2,4.2-4.7,8.2-7.5,11.9c-1.5,1.7-8,3.2-9.1,3.2
	c-2-0.2-3.9-0.5-5.8-1.1c-2.1-0.6-8.2-9.2-10.9-14l-61-109.1c-2.7-4.8-4.7-6.5-4.4-3.9l0.1,2.3l0.1,2.4c0,2.3,0.1,8.6,0.1,14.1
	v128.3c0,5.5-4.5,10-10,10H136c-5.5,0-10-4.5-10-10V137.1c0-5.5,4.5-10,10-10h0.1c5.5,0,11.9,0.1,14.3,0.2l1.3,0.5l1.3,0.5
	c1.4,1.9,4.7,7.4,7.4,12.2l59.9,106.8c2.7,4.8,5.9,10.8,7.1,13.3L228.5,263.1z"/>
</svg>
